Patient4_TMGait_0pt8_01_right_30_EMG.mot
version=1
nRows=20
nColumns=33
inDegrees=no
endheader
time	1LAddLong	2LGlutMax	3LGlutMed	4LIliopsoas	5LSemiMemb	6LBicFemLong	7LRecFem	8LVastMed	9LVastLat	10LGasMed	11LTibAnt	12lTibPost	13LPeroneusLong	14LSol	15LExtDigLong	16LFlexDigLong	17RAddLong	18RGlutMax	19RGlutMed	20RIliopsoas	21RSemiMemb	22RBicFemLong	23RRecFem	24RVastMed	25RVastLat	26RGasMed	27RTibAnt	28RTibPost	29RPeroneusLong	30RSol	31RExtDigLong	32RFlexDigLong
33.54	0.007019	-0.078125	-0.14114	-0.009308	0.003204	0.034485	0.13672	0.004578	0.010071	0.02533	0.024109	0.005035	0.036621	0.098267	-0.1442	0.019226	-0.018463	0.087128	1.0223	-0.42404	0.15182	0.10513	-0.03418	0.084076	0	-0.032196	-0.19943	0.001068	0.21316	-0.0177	0.001526	0.011902
33.541	-0.006409	-0.10315	-0.10422	-0.009766	0.01358	0.019684	0.15961	0.003662	0.029755	-0.024719	-0.044403	0.014648	0.16129	0.13184	-0.28061	-0.001526	-0.012817	0.056458	0.59479	-0.35248	0.13016	0.11231	-0.089722	0.097809	0.011444	-0.03006	0.10284	0.000153	0.062561	-0.10483	-0.000763	0.023956
33.542	-0.000458	-0.12741	-0.12146	0.005341	0.002899	0.028381	0.13321	0.006714	0.044861	-0.032806	0.045776	0.010681	0.11047	0.25162	-0.15717	-0.012665	0.009003	0.063782	0.41687	-0.23941	0.12528	0.093689	-0.040741	0.065765	-0.016937	-0.029602	0.20676	-0.003357	-0.2713	-0.091248	-0.00351	0.037079
33.543	0.002594	-0.13565	-0.067139	0.022736	0.007477	0.025635	0.1004	0.00061	0.050201	-0.018158	0.030975	0.007782	-0.014343	0.061035	0.045624	-0.002594	0.008392	0.035553	0.62347	-0.03006	0.12848	0.077515	-0.11597	0.050201	-0.027924	-0.025482	0.04364	0.000763	-0.22675	-0.020294	-0.005798	0.058899
33.544	-0.001526	-0.15854	-0.028076	0.00473	0.002594	0.023956	0.005341	-0.022583	0.051575	-0.081482	-0.071869	0.01236	0.077515	0.12253	0.51559	-0.00824	-0.015717	0.019836	0.73624	0.18738	0.13565	0.084686	-0.060272	0.091858	-0.021362	-0.02243	0.039825	-0.000153	-0.20264	0.055695	-0.003815	0.06958
33.545	-0.007019	-0.15213	-0.070496	-0.003204	-0.021057	0.02533	0.090637	-0.033722	0.031281	-0.080261	-0.087738	0.009918	0.1358	0.21973	0.07431	-0.005798	-0.012817	0.036011	0.61676	0.31586	0.11032	0.041199	-0.023651	0.044098	-0.027008	-0.018158	0.06012	-0.005188	-0.22522	0.065308	-0.003204	0.075378
33.546	-0.000916	-0.16144	-0.08255	0.005341	-0.033264	0.022125	0.018921	-0.014801	0.083466	-0.013123	-0.10101	0.014038	0.073547	0.2153	0.2594	-0.003204	-0.032501	0.007629	0.48462	0.37964	0.11871	0.056915	0.052948	0.014343	-0.01358	-0.011292	-0.078583	0.000916	-0.074158	0.077209	0	0.076294
33.547	-0.013428	-0.12955	-0.097504	0.011749	0	0.010986	0.037384	0.001068	0.18295	-0.000916	0.024261	0.009155	-0.0354	0.18951	0.60379	0.000305	-0.023499	-0.018158	0.43015	0.34653	0.095215	0.04776	0.070343	-0.028076	-0.009613	-0.003052	-0.075073	0.000305	0.13229	0.056305	-0.003052	0.061188
33.548	-0.001984	-0.15533	-0.23926	0.016785	0.029449	0.005493	0.10086	0.004272	0.29678	-0.006104	-0.14038	0.010986	-0.12756	0.10269	-0.63568	-0.000916	-0.026093	-0.033417	0.51514	0.39566	0.081635	0.047302	0.044403	-0.035553	-0.043182	-0.007019	0.045013	-0.00061	-0.067444	0.068207	0.000305	0.03418
33.549	-0.003967	-0.1741	-0.24368	0.016785	0.034027	-0.016937	0.15869	0.018311	0.29694	0.001526	-0.13748	0.014801	-0.028992	0.011292	-0.63614	-0.004578	-0.034485	-0.0177	0.85739	0.3627	0.077667	0.056458	0.078278	-0.10757	-0.032501	-0.003357	0.1976	-0.001373	-0.26916	0.006409	0.000305	-0.003815
33.55	-0.016785	-0.19257	-0.22553	0.01358	-0.013885	0.020447	0.19501	0.006409	0.070801	-0.015717	0.050812	0.018005	-0.002899	-0.15274	-0.5751	0.006104	-0.034332	-0.085602	0.8464	0.22781	0.083771	0.059357	0.082245	-0.11765	-0.030518	0.012512	0.28839	-0.001984	0.10971	-0.062256	-0.005493	-0.065308
33.551	-0.011139	-0.18204	-0.10742	-0.001831	-0.088806	0.02243	0.096893	-0.001068	-0.057068	-0.005341	0.17014	0.007935	-0.038757	-0.2124	-0.51788	-0.000153	-0.022583	-0.066528	0.55878	0.032806	0.089264	0.06546	0.072327	-0.097656	-0.026398	0.019989	0.16556	-0.001678	0.30563	-0.041351	0.00061	-0.103
33.552	-0.020142	-0.21469	-0.036469	-0.003052	-0.15152	0.051727	0.058746	0.00351	-0.033264	0.001373	0.059662	0.0177	-0.13382	-0.25284	-0.56137	-0.006866	0.005188	-0.067902	0.36285	-0.046844	0.083771	0.048523	0.11688	-0.14771	-0.032806	0.017548	0.2301	-0.000153	0.71747	-0.037537	-0.001373	-0.097961
33.553	-0.016632	-0.20309	0.033722	0.001526	-0.18463	0.041809	0.14267	-0.01358	0.097198	-0.014801	-0.09903	0.005646	0.002594	-0.3154	-0.55054	-0.004425	0.023804	-0.012512	0.35797	-0.082245	0.084686	0.052795	0.20248	-0.14145	-0.027313	0.026245	0.042114	-0.002289	0.38727	0.003967	-0.001373	-0.096741
33.554	0.013733	-0.20554	-0.081329	0.013275	-0.12726	-0.086975	0.20081	-0.009766	0.076141	-0.033112	-0.16556	0.00473	0.13565	-0.21149	-0.068817	-0.003815	0.029907	0.031128	0.58579	-0.13351	0.093079	0.037384	0.29587	-0.16144	-0.02182	0.028839	-0.34485	-0.000458	-0.11734	0.017548	-0.004272	-0.10086
33.555	0.032196	-0.21011	-0.16892	0.013733	0.12299	-0.12161	0.28671	-0.007324	-0.009003	-0.027924	-0.1651	0.006409	0.10407	-0.23682	0.27145	0.012054	0.006866	-0.011444	0.26169	-0.045166	0.10696	0.047302	0.3305	-0.20004	-0.032806	0.03952	-0.24948	0.001984	-0.20477	-0.030518	-0.002136	-0.088501
33.556	0.030975	-0.22293	-0.018463	0.002899	0.15289	-0.093079	0.31403	-0.003052	-0.037231	-0.026398	-0.07843	0.006866	0.004272	-0.23773	0.2478	0.005798	-0.001831	-0.09964	-0.060577	0.045624	0.10269	0.05127	0.3389	-0.13504	-0.025635	0.055695	-0.052032	0.001068	0.061951	-0.069122	-0.006104	-0.058594
33.557	0.022278	-0.16464	-0.088196	0.012054	0.14694	-0.11688	0.28366	0.000305	-0.031281	-0.037231	-0.039673	0.014954	-0.024872	-0.14999	0.21973	0.007324	-0.008545	-0.083923	-0.025024	0.15671	0.050201	0.046387	0.37048	-0.064545	-0.014496	0.066986	0.25497	-0.001984	0.26916	-0.10529	-0.004883	-0.061951
33.558	0.015411	-0.1326	-0.099945	0.012207	0.12253	-0.10498	0.27725	-0.00351	-0.002136	-0.072937	-0.00824	0.001221	-0.046234	-0.074615	0.005798	0.005035	-0.024872	-0.058136	-0.1622	0.14069	0.029297	0.048828	0.37964	-0.041962	-0.001526	0.061798	0.38757	0	-0.052795	-0.11093	-0.001068	-0.095673
33.559	0.03067	-0.12436	-0.11841	-0.007477	0.077057	-0.072327	0.19852	-0.012817	0.009308	-0.072479	0.057831	0.004272	-0.035706	0.005798	0.038147	-0.002747	-0.016785	-0.034943	-0.24612	0.017242	0.063782	0.029297	0.34988	-0.027618	0.009766	0.065918	0.33417	0	-0.31418	-0.061646	-0.004272	-0.099182
